<mxfile host="app.diagrams.net" modified="2024-05-13T20:24:36.140Z" agent="Mozilla/5.0 (Windows NT 10.0; Win64; x64; rv:125.0) Gecko/20100101 Firefox/125.0" etag="dr_rXQkiUTFJegD-wxce" version="24.3.1" type="github" pages="2">
  <diagram name="DiagramaFlujo" id="3m-96TjUOFt73O2IfP9_">
    <mxGraphModel dx="1373" dy="678" grid="1" gridSize="10" guides="1" tooltips="1" connect="1" arrows="1" fold="1" page="1" pageScale="1" pageWidth="1700" pageHeight="1100" math="0" shadow="0">
      <root>
        <mxCell id="0" />
        <mxCell id="1" parent="0" />
        <mxCell id="3zX5SwSfaEAW2f8ihCt3-3" value="" style="rounded=0;whiteSpace=wrap;html=1;fillColor=none;" parent="1" vertex="1">
          <mxGeometry x="240" y="120" width="240" height="460" as="geometry" />
        </mxCell>
        <mxCell id="3zX5SwSfaEAW2f8ihCt3-1" value="PEDIDO FACTURADO" style="rounded=0;whiteSpace=wrap;html=1;" parent="1" vertex="1">
          <mxGeometry x="280" y="200" width="160" height="40" as="geometry" />
        </mxCell>
        <mxCell id="3zX5SwSfaEAW2f8ihCt3-6" value="WMX SLP" style="text;html=1;whiteSpace=wrap;overflow=hidden;rounded=0;align=center;" parent="1" vertex="1">
          <mxGeometry x="240" y="90" width="240" height="30" as="geometry" />
        </mxCell>
        <mxCell id="3zX5SwSfaEAW2f8ihCt3-7" value="SOLICITUD EMBARQUE" style="rounded=0;whiteSpace=wrap;html=1;" parent="1" vertex="1">
          <mxGeometry x="280" y="280" width="160" height="40" as="geometry" />
        </mxCell>
        <mxCell id="3zX5SwSfaEAW2f8ihCt3-9" value="Informacion de las Facturas a enviar" style="shape=parallelogram;html=1;strokeWidth=2;perimeter=parallelogramPerimeter;whiteSpace=wrap;rounded=1;arcSize=12;size=0.23;" parent="1" vertex="1">
          <mxGeometry x="30" y="230" width="130" height="140" as="geometry" />
        </mxCell>
        <mxCell id="3zX5SwSfaEAW2f8ihCt3-10" value="" style="rounded=0;whiteSpace=wrap;html=1;fillColor=none;" parent="1" vertex="1">
          <mxGeometry x="560" y="120" width="240" height="460" as="geometry" />
        </mxCell>
        <mxCell id="3zX5SwSfaEAW2f8ihCt3-11" value="LOGISTICA" style="text;html=1;whiteSpace=wrap;overflow=hidden;rounded=0;align=center;" parent="1" vertex="1">
          <mxGeometry x="560" y="90" width="240" height="30" as="geometry" />
        </mxCell>
        <mxCell id="3zX5SwSfaEAW2f8ihCt3-12" value="REALIZA COTIZACION" style="rounded=0;whiteSpace=wrap;html=1;" parent="1" vertex="1">
          <mxGeometry x="600" y="160" width="160" height="40" as="geometry" />
        </mxCell>
        <mxCell id="3zX5SwSfaEAW2f8ihCt3-14" value="" style="endArrow=none;html=1;rounded=0;exitX=1;exitY=0.5;exitDx=0;exitDy=0;entryX=0;entryY=0.5;entryDx=0;entryDy=0;" parent="1" source="3zX5SwSfaEAW2f8ihCt3-9" target="3zX5SwSfaEAW2f8ihCt3-7" edge="1">
          <mxGeometry width="50" height="50" relative="1" as="geometry">
            <mxPoint x="150" y="300" as="sourcePoint" />
            <mxPoint x="200" y="250" as="targetPoint" />
          </mxGeometry>
        </mxCell>
        <mxCell id="3zX5SwSfaEAW2f8ihCt3-15" value="" style="endArrow=classic;html=1;rounded=0;exitX=0.5;exitY=1;exitDx=0;exitDy=0;" parent="1" source="3zX5SwSfaEAW2f8ihCt3-1" target="3zX5SwSfaEAW2f8ihCt3-7" edge="1">
          <mxGeometry width="50" height="50" relative="1" as="geometry">
            <mxPoint x="330" y="330" as="sourcePoint" />
            <mxPoint x="380" y="280" as="targetPoint" />
          </mxGeometry>
        </mxCell>
        <mxCell id="3zX5SwSfaEAW2f8ihCt3-17" value="" style="endArrow=classic;html=1;rounded=0;entryX=0;entryY=0.5;entryDx=0;entryDy=0;exitX=0.5;exitY=1;exitDx=0;exitDy=0;" parent="1" source="3zX5SwSfaEAW2f8ihCt3-7" target="3zX5SwSfaEAW2f8ihCt3-12" edge="1">
          <mxGeometry width="50" height="50" relative="1" as="geometry">
            <mxPoint x="330" y="330" as="sourcePoint" />
            <mxPoint x="380" y="280" as="targetPoint" />
            <Array as="points">
              <mxPoint x="360" y="360" />
              <mxPoint x="520" y="360" />
              <mxPoint x="520" y="180" />
            </Array>
          </mxGeometry>
        </mxCell>
        <mxCell id="3zX5SwSfaEAW2f8ihCt3-20" value="" style="endArrow=classic;html=1;rounded=0;exitX=0.5;exitY=1;exitDx=0;exitDy=0;entryX=1;entryY=0.5;entryDx=0;entryDy=0;" parent="1" source="3zX5SwSfaEAW2f8ihCt3-12" target="3zX5SwSfaEAW2f8ihCt3-21" edge="1">
          <mxGeometry width="50" height="50" relative="1" as="geometry">
            <mxPoint x="330" y="330" as="sourcePoint" />
            <mxPoint x="490" y="10" as="targetPoint" />
            <Array as="points">
              <mxPoint x="680" y="410" />
            </Array>
          </mxGeometry>
        </mxCell>
        <mxCell id="3zX5SwSfaEAW2f8ihCt3-21" value="GENERA GUIAS" style="rounded=0;whiteSpace=wrap;html=1;" parent="1" vertex="1">
          <mxGeometry x="280" y="390" width="160" height="40" as="geometry" />
        </mxCell>
        <mxCell id="3zX5SwSfaEAW2f8ihCt3-22" value="Detalle del personal que realizara la recoleccion " style="shape=parallelogram;html=1;strokeWidth=2;perimeter=parallelogramPerimeter;whiteSpace=wrap;rounded=1;arcSize=12;size=0.23;" parent="1" vertex="1">
          <mxGeometry x="860" y="130" width="350" height="100" as="geometry" />
        </mxCell>
        <mxCell id="3zX5SwSfaEAW2f8ihCt3-23" value="" style="endArrow=none;html=1;rounded=0;exitX=1;exitY=0.5;exitDx=0;exitDy=0;entryX=0;entryY=0.5;entryDx=0;entryDy=0;" parent="1" source="3zX5SwSfaEAW2f8ihCt3-12" target="3zX5SwSfaEAW2f8ihCt3-22" edge="1">
          <mxGeometry width="50" height="50" relative="1" as="geometry">
            <mxPoint x="940" y="240" as="sourcePoint" />
            <mxPoint x="1070" y="240" as="targetPoint" />
          </mxGeometry>
        </mxCell>
        <mxCell id="3zX5SwSfaEAW2f8ihCt3-24" value="" style="endArrow=classic;html=1;rounded=0;entryX=0.5;entryY=0;entryDx=0;entryDy=0;exitX=0.5;exitY=1;exitDx=0;exitDy=0;" parent="1" source="3zX5SwSfaEAW2f8ihCt3-21" target="3zX5SwSfaEAW2f8ihCt3-26" edge="1">
          <mxGeometry width="50" height="50" relative="1" as="geometry">
            <mxPoint x="360" y="440" as="sourcePoint" />
            <mxPoint x="300" y="680" as="targetPoint" />
          </mxGeometry>
        </mxCell>
        <mxCell id="3zX5SwSfaEAW2f8ihCt3-26" value="RECOLECCION PAQUETERIA" style="rounded=0;whiteSpace=wrap;html=1;" parent="1" vertex="1">
          <mxGeometry x="280" y="470" width="160" height="40" as="geometry" />
        </mxCell>
        <mxCell id="3zX5SwSfaEAW2f8ihCt3-27" value="" style="endArrow=classic;html=1;rounded=0;exitX=1;exitY=0.5;exitDx=0;exitDy=0;entryX=0;entryY=0.5;entryDx=0;entryDy=0;" parent="1" source="3zX5SwSfaEAW2f8ihCt3-26" target="3zX5SwSfaEAW2f8ihCt3-28" edge="1">
          <mxGeometry width="50" height="50" relative="1" as="geometry">
            <mxPoint x="560" y="440" as="sourcePoint" />
            <mxPoint x="610" y="390" as="targetPoint" />
          </mxGeometry>
        </mxCell>
        <mxCell id="3zX5SwSfaEAW2f8ihCt3-28" value="SEGUIMIENTO DEL ENVIO" style="rounded=0;whiteSpace=wrap;html=1;" parent="1" vertex="1">
          <mxGeometry x="600" y="470" width="160" height="40" as="geometry" />
        </mxCell>
        <mxCell id="3zX5SwSfaEAW2f8ihCt3-29" value="Inicio" style="ellipse;whiteSpace=wrap;html=1;" parent="1" vertex="1">
          <mxGeometry x="330" y="130" width="60" height="40" as="geometry" />
        </mxCell>
        <mxCell id="3zX5SwSfaEAW2f8ihCt3-30" value="" style="endArrow=classic;html=1;rounded=0;exitX=0.5;exitY=1;exitDx=0;exitDy=0;entryX=0.5;entryY=0;entryDx=0;entryDy=0;" parent="1" source="3zX5SwSfaEAW2f8ihCt3-29" target="3zX5SwSfaEAW2f8ihCt3-1" edge="1">
          <mxGeometry width="50" height="50" relative="1" as="geometry">
            <mxPoint x="560" y="440" as="sourcePoint" />
            <mxPoint x="610" y="390" as="targetPoint" />
          </mxGeometry>
        </mxCell>
        <mxCell id="3zX5SwSfaEAW2f8ihCt3-31" value="Fin" style="ellipse;whiteSpace=wrap;html=1;" parent="1" vertex="1">
          <mxGeometry x="645" y="540" width="70" height="40" as="geometry" />
        </mxCell>
        <mxCell id="3zX5SwSfaEAW2f8ihCt3-32" value="" style="endArrow=classic;html=1;rounded=0;exitX=0.5;exitY=1;exitDx=0;exitDy=0;" parent="1" source="3zX5SwSfaEAW2f8ihCt3-28" target="3zX5SwSfaEAW2f8ihCt3-31" edge="1">
          <mxGeometry width="50" height="50" relative="1" as="geometry">
            <mxPoint x="560" y="440" as="sourcePoint" />
            <mxPoint x="610" y="390" as="targetPoint" />
          </mxGeometry>
        </mxCell>
      </root>
    </mxGraphModel>
  </diagram>
  <diagram id="4bEOWCzy1OfF21id6L6H" name="Programacion">
    <mxGraphModel dx="1292" dy="638" grid="1" gridSize="10" guides="1" tooltips="1" connect="1" arrows="1" fold="1" page="1" pageScale="1" pageWidth="1700" pageHeight="1100" math="0" shadow="0">
      <root>
        <mxCell id="0" />
        <mxCell id="1" parent="0" />
        <mxCell id="9-De6FhEHTDBVYOy9X6K-2" value="&lt;div&gt;&lt;font style=&quot;font-size: 18px;&quot;&gt;1.06&amp;nbsp; Envíos&amp;nbsp; &lt;br&gt;&lt;/font&gt;&lt;/div&gt;&lt;div&gt;&lt;font size=&quot;3&quot;&gt;Mostramos los pedidos Facturados de los cuales podrá levantar una solicitud de embarque para que logística realice una cotización cuando se levántala solicitud actualizamos el estatus(SOL_EMBARQUE)&lt;br&gt;&lt;/font&gt;&lt;/div&gt;&lt;div&gt;&lt;font size=&quot;3&quot;&gt;&lt;br&gt;&lt;/font&gt;&lt;/div&gt;&lt;div&gt;&lt;font size=&quot;3&quot;&gt;Después de que realicen el análisis podemos mostrar a logística la información del pedido que se esta requiriendo Nombre del cliente, destino, tipo de envió,&amp;nbsp; # de factura, marca de unidades, modelo, #numero de unidades.&lt;/font&gt;&lt;/div&gt;&lt;div&gt;&lt;font size=&quot;3&quot;&gt;&lt;br&gt;&lt;/font&gt;&lt;/div&gt;&lt;div&gt;&lt;font size=&quot;3&quot;&gt;Una vez tengan la información de la fletera deberán actualizar la información del envió y enviar la solicitud, esto puede ser en otro apartado y al enviar la solicitud debe haber un cambiio de estatus a (PEN_EMBARQUE)&lt;/font&gt;&lt;/div&gt;&lt;div&gt;&lt;font size=&quot;3&quot;&gt;&lt;br&gt;&lt;/font&gt;&lt;/div&gt;&lt;div&gt;&lt;font size=&quot;3&quot;&gt;&lt;br&gt;&lt;/font&gt;&lt;/div&gt;&lt;div&gt;&lt;font size=&quot;3&quot;&gt;WMX realiza las guías (¿Aqui es necesario que realicen algo? )&lt;/font&gt;&lt;/div&gt;&lt;div&gt;&lt;font size=&quot;3&quot;&gt;El día del arribo mostrar opción a wmx para que suba la evidencia y marque como EMBARCADO el pedido, aquí también actualizan en la WEB revisar el programa que actualmente permite subir evidencia y los cambios de estatus que realiza.&lt;/font&gt;&lt;/div&gt;&lt;div&gt;&lt;font size=&quot;3&quot;&gt;&lt;br&gt;&lt;/font&gt;&lt;/div&gt;&lt;div&gt;&lt;font size=&quot;3&quot;&gt;Se tendria que modificar la forma actual de subir las imágenes y actualizar los estatus.&lt;/font&gt;&lt;/div&gt;&lt;div&gt;&lt;font size=&quot;3&quot;&gt;&lt;br&gt;&lt;/font&gt;&lt;/div&gt;&lt;div&gt;&lt;br&gt;&lt;/div&gt;&lt;div&gt;&lt;br&gt;&lt;/div&gt;&lt;div&gt;&lt;br&gt; &lt;/div&gt;" style="text;html=1;whiteSpace=wrap;overflow=hidden;rounded=0;" vertex="1" parent="1">
          <mxGeometry x="240" y="80" width="720" height="460" as="geometry" />
        </mxCell>
      </root>
    </mxGraphModel>
  </diagram>
</mxfile>
